<?xml version="1.0" encoding="UTF-8"?>
<svg id="Capa_2" data-name="Capa 2" xmlns="http://www.w3.org/2000/svg" viewBox="0 0 295.05 189">
  <defs>
    <style>
      .cls-1 {
        fill: #032833;
      }
    </style>
  </defs>
  <g id="Capa_1-2" data-name="Capa 1">
    <g>
      <path class="cls-1" d="m48.87,0H0l94.51,94.5L0,189h48.87c8.75,0,17.15-3.48,23.34-9.67l58.14-58.13c7.08-7.08,11.06-16.68,11.06-26.7h0c0-10.01-3.98-19.61-11.06-26.69L72.2,9.67C66.01,3.48,57.62,0,48.87,0Z"/>
      <path class="cls-1" d="m200.57,94.5L295.05,0h-48.85c-8.75,0-17.15,3.48-23.34,9.67l-58.13,58.14c-7.08,7.08-11.05,16.68-11.05,26.69h0c0,10.01,3.98,19.62,11.06,26.7l58.12,58.13c6.19,6.19,14.59,9.67,23.34,9.67h48.86l-94.48-94.5Z"/>
    </g>
  </g>
</svg>