<svg id="_x3C_Layer_x3E_" enable-background="new 0 0 500 500" viewBox="0 0 500 500" xmlns="http://www.w3.org/2000/svg"><g><g><path d="m419.061 338.556c-112.708 0-225.415 0-338.122 0 0-59.037 0-118.075 0-177.112h338.122z" fill="#fff"/><g fill="#b31942"><path d="m80.939 175.423h338.122c0-5.591 0-8.387 0-13.979-112.708 0-225.415 0-338.122 0z"/><path d="m80.939 202.611h338.122c0-5.591 0-8.387 0-13.978-112.708 0-225.415 0-338.122 0z"/><path d="m80.939 229.8h338.122c0-5.591 0-8.387 0-13.978-112.708 0-225.415 0-338.122 0z"/><path d="m80.939 256.989h338.122c0-5.591 0-8.387 0-13.978-112.708 0-225.415 0-338.122 0z"/><path d="m80.939 284.178h338.122c0-5.591 0-8.387 0-13.978-112.708 0-225.415 0-338.122 0z"/><path d="m80.939 311.367h338.122c0-5.591 0-8.387 0-13.978-112.708 0-225.415 0-338.122 0z"/><path d="m80.939 338.556h338.122c0-5.591 0-8.387 0-13.978-112.708 0-225.415 0-338.122 0z"/></g><path d="m215.544 256.989c-44.868 0-89.737 0-134.605 0 0-31.848 0-63.697 0-95.545h134.605z" fill="#0a3161"/><g fill="#fff"><path d="m89.741 164.049c.456 1.403.684 2.105 1.14 3.508h3.689c-1.194.867-1.79 1.301-2.984 2.168.456 1.403.684 2.105 1.14 3.508-1.194-.868-1.79-1.301-2.984-2.168-1.194.867-1.791 1.301-2.984 2.168.456-1.403.684-2.105 1.14-3.508-1.194-.867-1.791-1.301-2.985-2.168h3.689c.455-1.403.683-2.104 1.139-3.508z"/><path d="m113.141 164.049c.456 1.403.684 2.105 1.14 3.508h3.689c-1.194.867-1.79 1.301-2.984 2.168.456 1.403.684 2.105 1.14 3.508-1.194-.868-1.79-1.301-2.984-2.168-1.194.867-1.79 1.301-2.984 2.168.456-1.403.684-2.105 1.14-3.508-1.194-.867-1.791-1.301-2.985-2.168h3.689c.455-1.403.683-2.104 1.139-3.508z"/><path d="m136.541 164.049c.456 1.403.684 2.105 1.14 3.508h3.689c-1.194.867-1.79 1.301-2.984 2.168.456 1.403.684 2.105 1.14 3.508-1.194-.868-1.79-1.301-2.984-2.168-1.194.867-1.791 1.301-2.984 2.168.456-1.403.684-2.105 1.14-3.508-1.194-.867-1.79-1.301-2.984-2.168h3.689c.454-1.403.682-2.104 1.138-3.508z"/><path d="m159.941 164.049c.456 1.403.684 2.105 1.14 3.508h3.689c-1.194.867-1.791 1.301-2.985 2.168.456 1.403.684 2.105 1.14 3.508-1.194-.868-1.79-1.301-2.984-2.168-1.194.867-1.79 1.301-2.984 2.168.456-1.403.684-2.105 1.14-3.508-1.194-.867-1.79-1.301-2.984-2.168h3.689c.455-1.403.683-2.104 1.139-3.508z"/><path d="m183.341 164.049c.456 1.403.684 2.105 1.14 3.508h3.689c-1.194.867-1.791 1.301-2.984 2.168.456 1.403.684 2.105 1.14 3.508-1.194-.868-1.791-1.301-2.984-2.168-1.194.867-1.79 1.301-2.984 2.168.456-1.403.684-2.105 1.14-3.508-1.194-.867-1.791-1.301-2.984-2.168h3.689c.455-1.403.683-2.104 1.138-3.508z"/><path d="m206.742 164.049c.456 1.403.684 2.105 1.14 3.508h3.689c-1.194.867-1.79 1.301-2.984 2.168.456 1.403.684 2.105 1.14 3.508-1.194-.868-1.79-1.301-2.984-2.168-1.194.867-1.79 1.301-2.984 2.168.456-1.403.684-2.105 1.14-3.508-1.194-.867-1.79-1.301-2.984-2.168h3.689c.454-1.403.682-2.104 1.138-3.508z"/><path d="m101.441 174.032c.456 1.403.684 2.105 1.14 3.508h3.689c-1.194.867-1.79 1.301-2.984 2.168.456 1.403.684 2.105 1.14 3.508-1.194-.867-1.791-1.301-2.984-2.168-1.194.867-1.79 1.301-2.984 2.168.456-1.403.684-2.105 1.14-3.508-1.194-.867-1.791-1.301-2.984-2.168h3.689c.454-1.403.682-2.105 1.138-3.508z"/><path d="m124.841 174.032c.456 1.403.684 2.105 1.14 3.508h3.689c-1.194.867-1.79 1.301-2.984 2.168.456 1.403.684 2.105 1.14 3.508-1.194-.867-1.791-1.301-2.985-2.168-1.194.867-1.79 1.301-2.984 2.168.456-1.403.684-2.105 1.14-3.508-1.194-.867-1.79-1.301-2.984-2.168h3.689c.455-1.403.683-2.105 1.139-3.508z"/><path d="m148.241 174.032c.456 1.403.684 2.105 1.14 3.508h3.689c-1.194.867-1.791 1.301-2.984 2.168.456 1.403.684 2.105 1.14 3.508-1.194-.867-1.79-1.301-2.984-2.168-1.194.867-1.791 1.301-2.985 2.168.456-1.403.684-2.105 1.14-3.508-1.194-.867-1.79-1.301-2.984-2.168h3.689c.455-1.403.683-2.105 1.139-3.508z"/><path d="m171.642 174.032c.456 1.403.684 2.105 1.14 3.508h3.689c-1.194.867-1.79 1.301-2.984 2.168.456 1.403.684 2.105 1.14 3.508-1.194-.867-1.79-1.301-2.984-2.168-1.194.867-1.791 1.301-2.984 2.168.456-1.403.684-2.105 1.14-3.508-1.194-.867-1.79-1.301-2.984-2.168h3.689c.454-1.403.682-2.105 1.138-3.508z"/><path d="m195.042 174.032c.456 1.403.684 2.105 1.14 3.508h3.689c-1.194.867-1.79 1.301-2.984 2.168.456 1.403.684 2.105 1.14 3.508-1.194-.867-1.791-1.301-2.984-2.168-1.194.867-1.79 1.301-2.984 2.168.456-1.403.684-2.105 1.14-3.508-1.194-.867-1.791-1.301-2.984-2.168h3.689c.454-1.403.682-2.105 1.138-3.508z"/><path d="m89.741 184.337c.456 1.403.684 2.105 1.14 3.508h3.689c-1.194.867-1.79 1.301-2.984 2.168.456 1.403.684 2.105 1.14 3.508-1.194-.867-1.79-1.301-2.984-2.168-1.194.867-1.791 1.301-2.984 2.168.456-1.403.684-2.105 1.14-3.508-1.194-.867-1.791-1.301-2.985-2.168h3.689c.455-1.403.683-2.105 1.139-3.508z"/><path d="m113.141 184.337c.456 1.403.684 2.105 1.14 3.508h3.689c-1.194.867-1.79 1.301-2.984 2.168.456 1.403.684 2.105 1.14 3.508-1.194-.867-1.79-1.301-2.984-2.168-1.194.867-1.79 1.301-2.984 2.168.456-1.403.684-2.105 1.14-3.508-1.194-.867-1.791-1.301-2.985-2.168h3.689c.455-1.403.683-2.105 1.139-3.508z"/><path d="m136.541 184.337c.456 1.403.684 2.105 1.14 3.508h3.689c-1.194.867-1.79 1.301-2.984 2.168.456 1.403.684 2.105 1.14 3.508-1.194-.867-1.79-1.301-2.984-2.168-1.194.867-1.791 1.301-2.984 2.168.456-1.403.684-2.105 1.14-3.508-1.194-.867-1.79-1.301-2.984-2.168h3.689c.454-1.403.682-2.105 1.138-3.508z"/><path d="m159.941 184.337c.456 1.403.684 2.105 1.14 3.508h3.689c-1.194.867-1.791 1.301-2.985 2.168.456 1.403.684 2.105 1.14 3.508-1.194-.867-1.79-1.301-2.984-2.168-1.194.867-1.79 1.301-2.984 2.168.456-1.403.684-2.105 1.14-3.508-1.194-.867-1.79-1.301-2.984-2.168h3.689c.455-1.403.683-2.105 1.139-3.508z"/><path d="m183.341 184.337c.456 1.403.684 2.105 1.14 3.508h3.689c-1.194.867-1.791 1.301-2.984 2.168.456 1.403.684 2.105 1.14 3.508-1.194-.867-1.791-1.301-2.984-2.168-1.194.867-1.79 1.301-2.984 2.168.456-1.403.684-2.105 1.14-3.508-1.194-.867-1.791-1.301-2.984-2.168h3.689c.455-1.403.683-2.105 1.138-3.508z"/><path d="m206.742 184.337c.456 1.403.684 2.105 1.14 3.508h3.689c-1.194.867-1.79 1.301-2.984 2.168.456 1.403.684 2.105 1.14 3.508-1.194-.867-1.79-1.301-2.984-2.168-1.194.867-1.79 1.301-2.984 2.168.456-1.403.684-2.105 1.14-3.508-1.194-.867-1.79-1.301-2.984-2.168h3.689c.454-1.403.682-2.105 1.138-3.508z"/><path d="m101.441 194.319c.456 1.403.684 2.105 1.14 3.508h3.689c-1.194.867-1.79 1.301-2.984 2.168.456 1.403.684 2.105 1.14 3.508-1.194-.867-1.791-1.301-2.984-2.168-1.194.867-1.79 1.301-2.984 2.168.456-1.403.684-2.105 1.14-3.508-1.194-.867-1.791-1.301-2.984-2.168h3.689c.454-1.403.682-2.104 1.138-3.508z"/><path d="m124.841 194.319c.456 1.403.684 2.105 1.14 3.508h3.689c-1.194.867-1.79 1.301-2.984 2.168.456 1.403.684 2.105 1.14 3.508-1.194-.867-1.791-1.301-2.985-2.168-1.194.867-1.79 1.301-2.984 2.168.456-1.403.684-2.105 1.14-3.508-1.194-.867-1.79-1.301-2.984-2.168h3.689c.455-1.403.683-2.104 1.139-3.508z"/><path d="m148.241 194.319c.456 1.403.684 2.105 1.14 3.508h3.689c-1.194.867-1.791 1.301-2.984 2.168.456 1.403.684 2.105 1.14 3.508-1.194-.867-1.79-1.301-2.984-2.168-1.194.867-1.791 1.301-2.985 2.168.456-1.403.684-2.105 1.14-3.508-1.194-.867-1.79-1.301-2.984-2.168h3.689c.455-1.403.683-2.104 1.139-3.508z"/><path d="m171.642 194.319c.456 1.403.684 2.105 1.14 3.508h3.689c-1.194.867-1.79 1.301-2.984 2.168.456 1.403.684 2.105 1.14 3.508-1.194-.867-1.79-1.301-2.984-2.168-1.194.867-1.791 1.301-2.984 2.168.456-1.403.684-2.105 1.14-3.508-1.194-.867-1.79-1.301-2.984-2.168h3.689c.454-1.403.682-2.104 1.138-3.508z"/><path d="m195.042 194.319c.456 1.403.684 2.105 1.14 3.508h3.689c-1.194.867-1.79 1.301-2.984 2.168.456 1.403.684 2.105 1.14 3.508-1.194-.867-1.791-1.301-2.984-2.168-1.194.867-1.79 1.301-2.984 2.168.456-1.403.684-2.105 1.14-3.508-1.194-.867-1.791-1.301-2.984-2.168h3.689c.454-1.403.682-2.104 1.138-3.508z"/><path d="m89.741 204.624c.456 1.403.684 2.105 1.14 3.508h3.689c-1.194.867-1.79 1.301-2.984 2.168.456 1.403.684 2.105 1.14 3.508-1.194-.867-1.79-1.301-2.984-2.168-1.194.868-1.791 1.301-2.984 2.168.456-1.403.684-2.105 1.14-3.508-1.194-.867-1.791-1.301-2.985-2.168h3.689c.455-1.403.683-2.105 1.139-3.508z"/><path d="m113.141 204.624c.456 1.403.684 2.105 1.14 3.508h3.689c-1.194.867-1.79 1.301-2.984 2.168.456 1.403.684 2.105 1.14 3.508-1.194-.867-1.79-1.301-2.984-2.168-1.194.868-1.79 1.301-2.984 2.168.456-1.403.684-2.105 1.14-3.508-1.194-.867-1.791-1.301-2.985-2.168h3.689c.455-1.403.683-2.105 1.139-3.508z"/><path d="m136.541 204.624c.456 1.403.684 2.105 1.14 3.508h3.689c-1.194.867-1.79 1.301-2.984 2.168.456 1.403.684 2.105 1.14 3.508-1.194-.867-1.79-1.301-2.984-2.168-1.194.868-1.791 1.301-2.984 2.168.456-1.403.684-2.105 1.14-3.508-1.194-.867-1.79-1.301-2.984-2.168h3.689c.454-1.403.682-2.105 1.138-3.508z"/><path d="m159.941 204.624c.456 1.403.684 2.105 1.14 3.508h3.689c-1.194.867-1.791 1.301-2.985 2.168.456 1.403.684 2.105 1.14 3.508-1.194-.867-1.79-1.301-2.984-2.168-1.194.868-1.79 1.301-2.984 2.168.456-1.403.684-2.105 1.14-3.508-1.194-.867-1.79-1.301-2.984-2.168h3.689c.455-1.403.683-2.105 1.139-3.508z"/><path d="m183.341 204.624c.456 1.403.684 2.105 1.14 3.508h3.689c-1.194.867-1.791 1.301-2.984 2.168.456 1.403.684 2.105 1.14 3.508-1.194-.867-1.791-1.301-2.984-2.168-1.194.868-1.79 1.301-2.984 2.168.456-1.403.684-2.105 1.14-3.508-1.194-.867-1.791-1.301-2.984-2.168h3.689c.455-1.403.683-2.105 1.138-3.508z"/><path d="m206.742 204.624c.456 1.403.684 2.105 1.14 3.508h3.689c-1.194.867-1.79 1.301-2.984 2.168.456 1.403.684 2.105 1.14 3.508-1.194-.867-1.79-1.301-2.984-2.168-1.194.868-1.79 1.301-2.984 2.168.456-1.403.684-2.105 1.14-3.508-1.194-.867-1.79-1.301-2.984-2.168h3.689c.454-1.403.682-2.105 1.138-3.508z"/><path d="m101.441 214.607c.456 1.403.684 2.105 1.14 3.508h3.689c-1.194.867-1.79 1.301-2.984 2.168.456 1.403.684 2.105 1.14 3.508-1.194-.867-1.791-1.301-2.984-2.168-1.194.867-1.79 1.301-2.984 2.168.456-1.403.684-2.105 1.14-3.508-1.194-.868-1.791-1.301-2.984-2.168h3.689c.454-1.403.682-2.105 1.138-3.508z"/><path d="m124.841 214.607c.456 1.403.684 2.105 1.14 3.508h3.689c-1.194.867-1.79 1.301-2.984 2.168.456 1.403.684 2.105 1.14 3.508-1.194-.867-1.791-1.301-2.985-2.168-1.194.867-1.79 1.301-2.984 2.168.456-1.403.684-2.105 1.14-3.508-1.194-.868-1.79-1.301-2.984-2.168h3.689c.455-1.403.683-2.105 1.139-3.508z"/><path d="m148.241 214.607c.456 1.403.684 2.105 1.14 3.508h3.689c-1.194.867-1.791 1.301-2.984 2.168.456 1.403.684 2.105 1.14 3.508-1.194-.867-1.79-1.301-2.984-2.168-1.194.867-1.791 1.301-2.985 2.168.456-1.403.684-2.105 1.14-3.508-1.194-.868-1.79-1.301-2.984-2.168h3.689c.455-1.403.683-2.105 1.139-3.508z"/><path d="m171.642 214.607c.456 1.403.684 2.105 1.14 3.508h3.689c-1.194.867-1.79 1.301-2.984 2.168.456 1.403.684 2.105 1.14 3.508-1.194-.867-1.79-1.301-2.984-2.168-1.194.867-1.791 1.301-2.984 2.168.456-1.403.684-2.105 1.14-3.508-1.194-.868-1.79-1.301-2.984-2.168h3.689c.454-1.403.682-2.105 1.138-3.508z"/><path d="m195.042 214.607c.456 1.403.684 2.105 1.14 3.508h3.689c-1.194.867-1.79 1.301-2.984 2.168.456 1.403.684 2.105 1.14 3.508-1.194-.867-1.791-1.301-2.984-2.168-1.194.867-1.79 1.301-2.984 2.168.456-1.403.684-2.105 1.14-3.508-1.194-.868-1.791-1.301-2.984-2.168h3.689c.454-1.403.682-2.105 1.138-3.508z"/><path d="m89.741 224.911c.456 1.403.684 2.105 1.14 3.508h3.689c-1.194.868-1.79 1.301-2.984 2.168.456 1.403.684 2.105 1.14 3.508-1.194-.867-1.79-1.301-2.984-2.168-1.194.867-1.791 1.301-2.984 2.168.456-1.403.684-2.105 1.14-3.508-1.194-.867-1.791-1.301-2.985-2.168h3.689c.455-1.403.683-2.104 1.139-3.508z"/><path d="m113.141 224.911c.456 1.403.684 2.105 1.14 3.508h3.689c-1.194.868-1.79 1.301-2.984 2.168.456 1.403.684 2.105 1.14 3.508-1.194-.867-1.79-1.301-2.984-2.168-1.194.867-1.79 1.301-2.984 2.168.456-1.403.684-2.105 1.14-3.508-1.194-.867-1.791-1.301-2.985-2.168h3.689c.455-1.403.683-2.104 1.139-3.508z"/><path d="m136.541 224.911c.456 1.403.684 2.105 1.14 3.508h3.689c-1.194.868-1.79 1.301-2.984 2.168.456 1.403.684 2.105 1.14 3.508-1.194-.867-1.79-1.301-2.984-2.168-1.194.867-1.791 1.301-2.984 2.168.456-1.403.684-2.105 1.14-3.508-1.194-.867-1.79-1.301-2.984-2.168h3.689c.454-1.403.682-2.104 1.138-3.508z"/><path d="m159.941 224.911c.456 1.403.684 2.105 1.14 3.508h3.689c-1.194.868-1.791 1.301-2.985 2.168.456 1.403.684 2.105 1.14 3.508-1.194-.867-1.79-1.301-2.984-2.168-1.194.867-1.79 1.301-2.984 2.168.456-1.403.684-2.105 1.14-3.508-1.194-.867-1.79-1.301-2.984-2.168h3.689c.455-1.403.683-2.104 1.139-3.508z"/><path d="m183.341 224.911c.456 1.403.684 2.105 1.14 3.508h3.689c-1.194.868-1.791 1.301-2.984 2.168.456 1.403.684 2.105 1.14 3.508-1.194-.867-1.791-1.301-2.984-2.168-1.194.867-1.79 1.301-2.984 2.168.456-1.403.684-2.105 1.14-3.508-1.194-.867-1.791-1.301-2.984-2.168h3.689c.455-1.403.683-2.104 1.138-3.508z"/><path d="m206.742 224.911c.456 1.403.684 2.105 1.14 3.508h3.689c-1.194.868-1.79 1.301-2.984 2.168.456 1.403.684 2.105 1.14 3.508-1.194-.867-1.79-1.301-2.984-2.168-1.194.867-1.79 1.301-2.984 2.168.456-1.403.684-2.105 1.14-3.508-1.194-.867-1.79-1.301-2.984-2.168h3.689c.454-1.403.682-2.104 1.138-3.508z"/><path d="m101.441 234.894c.456 1.403.684 2.105 1.14 3.508h3.689c-1.194.867-1.79 1.301-2.984 2.168.456 1.403.684 2.105 1.14 3.508-1.194-.867-1.791-1.301-2.984-2.168-1.194.867-1.79 1.301-2.984 2.168.456-1.403.684-2.105 1.14-3.508-1.194-.867-1.791-1.301-2.984-2.168h3.689c.454-1.403.682-2.105 1.138-3.508z"/><path d="m124.841 234.894c.456 1.403.684 2.105 1.14 3.508h3.689c-1.194.867-1.79 1.301-2.984 2.168.456 1.403.684 2.105 1.14 3.508-1.194-.867-1.791-1.301-2.985-2.168-1.194.867-1.79 1.301-2.984 2.168.456-1.403.684-2.105 1.14-3.508-1.194-.867-1.79-1.301-2.984-2.168h3.689c.455-1.403.683-2.105 1.139-3.508z"/><path d="m148.241 234.894c.456 1.403.684 2.105 1.14 3.508h3.689c-1.194.867-1.791 1.301-2.984 2.168.456 1.403.684 2.105 1.14 3.508-1.194-.867-1.79-1.301-2.984-2.168-1.194.867-1.791 1.301-2.985 2.168.456-1.403.684-2.105 1.14-3.508-1.194-.867-1.79-1.301-2.984-2.168h3.689c.455-1.403.683-2.105 1.139-3.508z"/><path d="m171.642 234.894c.456 1.403.684 2.105 1.14 3.508h3.689c-1.194.867-1.79 1.301-2.984 2.168.456 1.403.684 2.105 1.14 3.508-1.194-.867-1.79-1.301-2.984-2.168-1.194.867-1.791 1.301-2.984 2.168.456-1.403.684-2.105 1.14-3.508-1.194-.867-1.79-1.301-2.984-2.168h3.689c.454-1.403.682-2.105 1.138-3.508z"/><path d="m195.042 234.894c.456 1.403.684 2.105 1.14 3.508h3.689c-1.194.867-1.79 1.301-2.984 2.168.456 1.403.684 2.105 1.14 3.508-1.194-.867-1.791-1.301-2.984-2.168-1.194.867-1.79 1.301-2.984 2.168.456-1.403.684-2.105 1.14-3.508-1.194-.867-1.791-1.301-2.984-2.168h3.689c.454-1.403.682-2.105 1.138-3.508z"/><path d="m89.741 245.199c.456 1.403.684 2.105 1.14 3.508h3.689c-1.194.867-1.79 1.301-2.984 2.168.456 1.403.684 2.105 1.14 3.508-1.194-.867-1.79-1.301-2.984-2.168-1.194.867-1.791 1.301-2.984 2.168.456-1.403.684-2.105 1.14-3.508-1.194-.867-1.791-1.301-2.985-2.168h3.689c.455-1.403.683-2.105 1.139-3.508z"/><path d="m113.141 245.199c.456 1.403.684 2.105 1.14 3.508h3.689c-1.194.867-1.79 1.301-2.984 2.168.456 1.403.684 2.105 1.14 3.508-1.194-.867-1.79-1.301-2.984-2.168-1.194.867-1.79 1.301-2.984 2.168.456-1.403.684-2.105 1.14-3.508-1.194-.867-1.791-1.301-2.985-2.168h3.689c.455-1.403.683-2.105 1.139-3.508z"/><path d="m136.541 245.199c.456 1.403.684 2.105 1.14 3.508h3.689c-1.194.867-1.79 1.301-2.984 2.168.456 1.403.684 2.105 1.14 3.508-1.194-.867-1.79-1.301-2.984-2.168-1.194.867-1.791 1.301-2.984 2.168.456-1.403.684-2.105 1.14-3.508-1.194-.867-1.79-1.301-2.984-2.168h3.689c.454-1.403.682-2.105 1.138-3.508z"/><path d="m159.941 245.199c.456 1.403.684 2.105 1.14 3.508h3.689c-1.194.867-1.791 1.301-2.985 2.168.456 1.403.684 2.105 1.14 3.508-1.194-.867-1.79-1.301-2.984-2.168-1.194.867-1.79 1.301-2.984 2.168.456-1.403.684-2.105 1.14-3.508-1.194-.867-1.79-1.301-2.984-2.168h3.689c.455-1.403.683-2.105 1.139-3.508z"/><path d="m183.341 245.199c.456 1.403.684 2.105 1.14 3.508h3.689c-1.194.867-1.791 1.301-2.984 2.168.456 1.403.684 2.105 1.14 3.508-1.194-.867-1.791-1.301-2.984-2.168-1.194.867-1.79 1.301-2.984 2.168.456-1.403.684-2.105 1.14-3.508-1.194-.867-1.791-1.301-2.984-2.168h3.689c.455-1.403.683-2.105 1.138-3.508z"/><path d="m206.742 245.199c.456 1.403.684 2.105 1.14 3.508h3.689c-1.194.867-1.79 1.301-2.984 2.168.456 1.403.684 2.105 1.14 3.508-1.194-.867-1.79-1.301-2.984-2.168-1.194.867-1.79 1.301-2.984 2.168.456-1.403.684-2.105 1.14-3.508-1.194-.867-1.79-1.301-2.984-2.168h3.689c.454-1.403.682-2.105 1.138-3.508z"/></g></g></g></svg>